<svg xmlns="http://www.w3.org/2000/svg" width="73" height="71" viewBox="0 0 73 71">
    <g fill="#757575" fill-rule="evenodd">
        <path d="M45.334 58.744a.92.92 0 0 0 0-1.839H8.079a.911.911 0 0 0-.648.27.922.922 0 0 0 .65 1.569h37.253zM45.334 47.655H8.079a.92.92 0 0 0 0 1.84h37.255a.92.92 0 1 0 0-1.84"/>
        <path d="M35.306 29.931L56.983 8.255l7.66 7.717-21.674 21.623-7.663-7.664zM31.38 41.506l2.3-10.612 8.292 8.291-10.592 2.321zm31.563-39.21l7.662 7.681-4.652 4.632-7.663-7.662 4.653-4.652zm9.593 8.32a.928.928 0 0 0 .283-.66.906.906 0 0 0-.277-.63l-.007-.008L63.562.264a.921.921 0 0 0-1.294.003L45.3 17.317H6.525A6.531 6.531 0 0 0 0 23.841v40.365c0 3.598 2.928 6.532 6.527 6.54h40.362a6.548 6.548 0 0 0 6.54-6.54V34.018l-1.84 1.84v28.348a4.732 4.732 0 0 1-4.697 4.701H6.525a4.712 4.712 0 0 1-4.685-4.7V23.84a4.69 4.69 0 0 1 4.685-4.685h36.932L32.046 30.603a.925.925 0 0 0-.25.46l-2.477 11.44a.913.913 0 0 0 .248.847c.176.18.414.28.657.281h.264l11.347-2.43a.917.917 0 0 0 .443-.246l11.34-11.34 18.918-19z"/>
    </g>
</svg>
