<?xml version="1.0" encoding="utf-8"?>
<!-- Generator: Adobe Illustrator 14.0.0, SVG Export Plug-In . SVG Version: 6.00 Build 43363)  -->
<!DOCTYPE svg PUBLIC "-//W3C//DTD SVG 1.1//EN" "http://www.w3.org/Graphics/SVG/1.1/DTD/svg11.dtd">
<svg version="1.1" id="Layer_1" xmlns="http://www.w3.org/2000/svg" xmlns:xlink="http://www.w3.org/1999/xlink" x="0px" y="0px"
	 width="600px" height="135.342px" viewBox="0 0 600 135.342" style="enable-background:new 0 0 600 135.342;" xml:space="preserve"
	>
<linearGradient id="SVGID_1_" gradientUnits="userSpaceOnUse" x1="-0.7891" y1="67.1802" x2="599.2109" y2="67.1802">
	<stop  offset="0" style="stop-color:#7A499C"/>
	<stop  offset="1" style="stop-color:#2489C5"/>
</linearGradient>
<path style="fill:url(#SVGID_1_);" d="M224.357,68.121c3.453-3.537,5.167-8.439,5.167-14.674c0-4.517-0.786-8.646-2.338-12.419
	c-1.56-3.765-3.822-7.013-6.776-9.763c-1.973-1.824-4.286-3.395-6.918-4.701c-1.316-0.638-2.719-1.212-4.192-1.731
	c-4.456-1.563-9.595-2.346-15.402-2.346c-6.238,0-11.943,1.073-17.093,3.223c-5.179,2.148-9.625,5.194-13.396,9.117
	c-3.765,3.921-6.696,8.598-8.786,14.031c-2.095,5.424-3.144,11.421-3.144,17.982c0,6.987,1.096,13.117,3.303,18.39
	c2.201,5.269,5.234,9.622,9.117,13.057c2.397,2.141,5.051,3.939,7.97,5.412c1.78,0.903,3.67,1.679,5.631,2.325
	c5.23,1.72,10.838,2.588,16.869,2.588c4.087,0,7.871-0.296,11.366-0.892c3.494-0.594,6.55-1.267,9.198-2.018
	c2.628-0.744,4.784-1.531,6.447-2.341c1.661-0.808,2.769-1.37,3.308-1.691l-5.154-12.086c-1.398,0.867-4.057,1.914-7.968,3.144
	c-3.937,1.229-8.968,1.852-15.083,1.852c-6.038,0-11.13-1.047-15.278-3.146c-1.333-0.68-2.561-1.454-3.705-2.346
	c-4.661-3.653-7.492-8.865-8.455-15.637h37.737C215.063,73.452,220.915,71.665,224.357,68.121z M168.568,61.677v-0.004h-0.015
	c0.103-3.127,0.703-6.257,1.775-9.44c1.084-3.167,2.665-6.05,4.761-8.631c2.094-2.574,4.704-4.705,7.823-6.361
	c3.116-1.662,6.719-2.497,10.807-2.497c3.544,0,6.582,0.498,9.115,1.52c0.573,0.235,1.117,0.479,1.646,0.745
	c1.804,0.903,3.324,1.969,4.575,3.221c1.612,1.617,2.758,3.453,3.465,5.489c0.696,2.034,1.048,4.084,1.048,6.12
	c0,3.768-0.867,6.346-2.585,7.751c-1.708,1.394-4.511,2.09-8.387,2.09H168.568z M68.156,34.978
	c-2.931-2.92-6.381-5.375-10.363-7.349c-1.348-0.661-2.753-1.277-4.224-1.835c-5.8-2.21-12.489-3.307-20.005-3.307
	c-4.828,0-9.255,0.321-13.232,0.963c-3.964,0.647-7.46,1.403-10.477,2.259c-3.013,0.859-5.428,1.696-7.257,2.501
	c-1.823,0.81-2.947,1.312-3.386,1.529v100.844h16.605V97.002c0.003,0.007,0.003,0.012,0.01,0.019v-0.012
	c0.321,0.423,1.048,1.168,2.174,2.25c1.132,1.072,2.737,2.198,4.838,3.388c0.327,0.18,0.655,0.361,1.016,0.538
	c1.909,0.963,4.197,1.829,6.88,2.592c3.167,0.919,6.957,1.38,11.366,1.38c5.375,0,10.384-0.861,15.004-2.578
	c4.613-1.727,8.628-4.277,12.014-7.66c3.383-3.386,6.047-7.589,7.987-12.584c1.925-5.001,2.898-10.778,2.898-17.347
	c0-6.45-1-12.419-2.979-17.901C75.032,43.602,72.074,38.897,68.156,34.978z M56.468,86.193c-4.088,4.733-9.838,7.109-17.262,7.109
	c-4.087,0-7.473-0.514-10.16-1.538c-0.962-0.375-1.864-0.763-2.715-1.187c-1.512-0.759-2.852-1.599-3.984-2.539
	c-1.78-1.444-3.183-2.979-4.201-4.588c-1.012-1.622-1.792-3.069-2.33-4.366V39.418c0.736-0.326,2.574-0.97,5.486-1.934
	c2.899-0.98,7.036-1.457,12.412-1.457c4.947,0,9.217,0.779,12.831,2.336c0.543,0.235,1.084,0.496,1.606,0.759
	c2.886,1.457,5.339,3.304,7.349,5.538c2.369,2.641,4.136,5.777,5.33,9.442c1.175,3.648,1.781,7.574,1.781,11.77
	C62.609,74.69,60.555,81.465,56.468,86.193z M147.333,32.16c0,2.043-0.432,3.763-1.292,5.154c-0.868,1.408-1.603,2.369-2.264,2.904
	c-0.2-0.135-0.428-0.279-0.703-0.426c-1.194-0.624-3.05-1.289-5.578-1.992c-3.131-0.858-6.625-1.296-10.492-1.296
	c-2.676,0-5.059,0.2-7.09,0.566c-2.041,0.379-3.785,0.81-5.238,1.293c-1.458,0.486-2.612,0.975-3.472,1.459
	c-0.869,0.47-1.458,0.824-1.773,1.042v65.159H92.825V32.328c0.321-0.329,1.312-0.994,2.99-2.018
	c1.658-1.021,3.922-2.099,6.774-3.239c2.836-1.115,6.215-2.136,10.077-3.051c3.869-0.91,8.23-1.375,13.061-1.375
	c4.307,0,7.824,0.272,10.586,0.805c2.621,0.521,4.734,1.193,6.321,1.999c0.06,0.023,0.114,0.061,0.182,0.096h0.019v0.007
	c0.009,0,0.024,0.007,0.029,0.019C145.841,27.071,147.333,29.268,147.333,32.16z M313.865,34.822
	c-3.125-3.16-6.759-5.766-10.898-7.823c-0.859-0.43-1.738-0.824-2.634-1.205c-5.28-2.21-11.075-3.307-17.426-3.307
	c-6.348,0-12.173,1.096-17.506,3.307c-5.312,2.213-9.857,5.219-13.624,9.033c-3.761,3.816-6.686,8.363-8.781,13.626
	c-2.094,5.266-3.147,10.964-3.147,17.094c0,6.127,1.053,11.831,3.147,17.098c2.095,5.269,5.02,9.817,8.781,13.636
	c3.017,3.051,6.526,5.58,10.541,7.611c0.981,0.498,2.011,0.976,3.076,1.406c5.323,2.217,11.154,3.313,17.5,3.313
	c6.353,0,12.154-1.097,17.42-3.313c5.264-2.195,9.778-5.208,13.551-9.024c3.762-3.818,6.698-8.368,8.782-13.634
	c2.104-5.263,3.155-10.976,3.155-17.101c0-6.129-1.052-11.825-3.155-17.093C320.563,43.186,317.627,38.631,313.865,34.822z
	 M306.787,77.413c-1.197,3.606-2.881,6.715-5.093,9.354c-2.203,2.632-4.891,4.672-8.06,6.125c-3.174,1.454-6.738,2.173-10.727,2.173
	c-4.088,0-7.728-0.719-10.881-2.173c-0.248-0.121-0.498-0.23-0.746-0.352c-2.865-1.43-5.298-3.35-7.333-5.782
	c-2.212-2.639-3.906-5.752-5.095-9.345c-1.167-3.622-1.765-7.568-1.765-11.873c0-4.299,0.598-8.253,1.765-11.851
	c1.189-3.609,2.883-6.72,5.095-9.366c2.196-2.626,4.893-4.663,8.065-6.117c3.16-1.464,6.794-2.178,10.881-2.178
	c3.991,0,7.551,0.714,10.722,2.178c0.403,0.182,0.794,0.37,1.181,0.57c2.665,1.405,4.974,3.258,6.897,5.559
	c2.212,2.641,3.896,5.757,5.093,9.354c1.173,3.604,1.76,7.558,1.76,11.858C308.547,69.849,307.96,73.797,306.787,77.413z
	 M599.211,28.998c-0.756,2.48-1.777,5.354-3.058,8.628c-1.293,3.288-2.694,6.757-4.197,10.406c-1.511,3.665-3.127,7.42-4.854,11.295
	c-1.713,3.863-3.432,7.634-5.147,11.292c-3.448,7.63-7.008,15.071-10.727,22.325c-3.706,7.266-5.801,10.67-9.991,17.88
	c-2.253,3.871-4.501,7.312-6.684,10.319c-2.227,3.016-4.609,5.508-7.183,7.501c-2.593,1.985-5.396,3.52-8.471,4.604
	c-3.066,1.063-6.536,1.603-10.41,1.603c-2.683,0-5.104-0.209-7.261-0.642c-2.142-0.436-3.995-0.919-5.562-1.456
	c-1.406-0.484-2.562-0.948-3.441-1.395c-0.087-0.044-0.161-0.084-0.255-0.128c-0.911-0.477-1.428-0.774-1.53-0.891l5.487-12.254
	c0.337,0.266,1.014,0.633,2.015,1.079c0.587,0.244,1.284,0.535,2.094,0.859c2.218,0.854,4.706,1.296,7.498,1.296
	c2.154,0,4.086-0.335,5.816-0.975c1.711-0.646,3.387-1.662,4.994-3.067c1.615-1.403,3.174-3.22,4.691-5.484
	c1.484-2.253,3.1-4.94,4.825-8.067l2.332-4.235c-1.401-2.255-3.139-5.158-5.245-8.709c-2.089-3.547-4.33-7.281-6.688-11.207
	c-2.373-3.923-4.742-7.928-7.095-12.027c-2.373-4.08-4.577-7.867-6.615-11.358c-2.043-3.502-3.793-6.539-5.245-9.112
	c-1.461-2.585-2.388-4.298-2.822-5.17c-0.756-1.496-1.399-2.925-1.934-4.274c-0.53-1.333-0.806-2.767-0.806-4.27
	c0-2.041,0.614-3.876,1.855-5.487c1.23-1.61,3.409-2.422,6.526-2.422c2.258,0,3.938,0.223,5.003,0.649
	c1.06,0.424,1.694,0.698,1.917,0.808c0.54,1.185,1.916,3.921,4.119,8.211c2.196,4.31,4.752,9.261,7.653,14.851
	c2.911,5.583,5.978,11.339,9.205,17.256c3.223,5.91,6.122,11.118,8.715,15.639v-0.007c0.005,0,0.005,0.007,0.009,0.015
	c1.821-3.761,3.786-7.925,5.888-12.491c2.094-4.572,4.108-9.144,6.036-13.717c1.939-4.57,3.778-8.949,5.5-13.149
	c1.703-4.188,3.152-7.739,4.345-10.634c0.858-2.157,1.962-3.937,3.307-5.329c1.345-1.394,3.518-2.101,6.533-2.101
	c2.15,0,3.958,0.365,5.408,1.103c0.224,0.114,0.428,0.224,0.633,0.354C597.945,27.87,598.886,28.572,599.211,28.998z
	 M494.091,30.855c-1.429-1.091-2.979-2.057-4.659-2.899c-2.534-1.273-5.366-2.271-8.461-2.985
	c-5.165-1.17-10.973-1.764-17.416-1.764c-4.852,0-8.872,0.396-12.105,1.198c-3.228,0.815-5.751,1.646-7.578,2.509
	c-1.709,0.859-3.091,1.915-4.109,3.144c-1.022,1.236-1.529,2.767-1.529,4.591c0,1.838,0.424,3.451,1.283,4.842
	c0.855,1.399,1.877,2.465,3.058,3.216c0.739-0.533,1.719-1.198,2.895-2.003c1.182-0.819,2.67-1.563,4.435-2.264
	c1.778-0.696,3.881-1.315,6.285-1.85c2.425-0.542,5.198-0.816,8.318-0.816c6.055,0,10.908,0.86,14.576,2.568
	c0.875,0.41,1.698,0.884,2.442,1.394c3.817,2.639,6.159,6.471,7.019,11.535c0.328,1.505,0.484,3.125,0.484,4.837v0.81
	c-1.285-0.216-3.891-0.433-7.828-0.654c-3.919-0.211-8.295-0.326-13.128-0.326c-6.999,0-12.877,0.628-17.671,1.864
	c-4.793,1.241-8.634,2.981-11.528,5.245c-2.906,2.252-4.993,5.049-6.292,8.385c-1.293,3.332-1.939,7.085-1.939,11.287
	c0,3.336,0.488,6.563,1.444,9.682c0.977,3.117,2.871,5.873,5.657,8.303c1.402,1.218,3.087,2.307,5.049,3.281
	c1.945,0.966,4.146,1.787,6.632,2.518c4.993,1.45,11.535,2.181,19.593,2.181c9.895,0,17.936-0.356,24.118-1.048
	c6.181-0.707,10.246-1.266,12.177-1.698v-48.23c0-6.341-0.975-11.716-2.908-16.118C500.479,37.177,497.7,33.601,494.091,30.855z
	 M488.871,95.293c-1.078,0.324-3.179,0.697-6.285,1.134c-3.125,0.424-7.423,0.647-12.904,0.647c-4.412,0-8.065-0.345-10.979-1.045
	c-1.853-0.456-3.463-1.02-4.827-1.696c-0.786-0.4-1.488-0.833-2.116-1.296c-1.721-1.292-2.906-2.854-3.552-4.683
	c-0.645-1.816-0.954-3.82-0.954-5.964c0-5.17,1.736-8.979,5.231-11.463c3.495-2.471,9.271-3.699,17.348-3.699
	c1.924,0,3.948,0.047,6.043,0.164c2.096,0.102,4.051,0.23,5.886,0.397c1.815,0.167,3.385,0.298,4.669,0.414
	c1.307,0.096,2.099,0.212,2.429,0.314c0,0,0.007,0,0.012,0.007V95.293z M404.997-0.491c-1.91,1.241-2.867,3.302-2.867,6.176v30.264
	c-0.004-0.007-0.011-0.012-0.011-0.017v0.009c-0.436-0.647-1.235-1.67-2.42-3.062c-1.183-1.401-2.853-2.83-5.005-4.282
	c-0.954-0.642-2.022-1.259-3.17-1.829c-1.45-0.71-3.041-1.357-4.794-1.95c-3.178-1.082-6.969-1.612-11.383-1.612
	c-5.37,0-10.336,0.912-14.905,2.734c-4.571,1.832-8.531,4.491-11.856,7.979c-3.344,3.5-5.976,7.8-7.926,12.91
	c-1.924,5.11-2.883,10.888-2.883,17.342c0,6.765,1.02,12.902,3.062,18.383c2.033,5.484,5.166,10.16,9.356,14.036
	c2.647,2.453,5.729,4.542,9.24,6.273c2.033,1.012,4.222,1.895,6.545,2.667c6.354,2.103,13.815,3.15,22.423,3.15
	c4.195,0,8.058-0.121,11.621-0.33c3.541-0.212,6.629-0.449,9.268-0.718c2.63-0.276,4.774-0.525,6.45-0.726
	c1.67-0.219,2.721-0.379,3.148-0.488V-0.279c-0.151-0.065-0.342-0.135-0.565-0.212H404.997z M402.13,93.854
	c-0.86,0.313-2.56,0.695-5.086,1.119c-2.531,0.433-6.145,0.645-10.881,0.645c-5.375,0-10.028-0.724-13.955-2.176
	c-0.993-0.37-1.951-0.774-2.858-1.231c-2.667-1.318-4.947-2.974-6.833-4.981c-2.529-2.694-4.381-5.892-5.557-9.591
	c-1.2-3.724-1.786-7.775-1.786-12.189c0-8.817,2.029-15.744,6.055-20.812c4.032-5.052,9.973-7.567,17.821-7.567
	c3.735,0,7.007,0.625,9.79,1.882c0.098,0.046,0.204,0.091,0.312,0.14c2.836,1.338,5.235,3.22,7.166,5.647
	c1.946,2.417,3.392,5.238,4.361,8.458c0.968,3.228,1.451,6.723,1.451,10.483V93.854z"/>
</svg>
